<svg width="32" height="32" viewBox="0 0 32 32" fill="none" xmlns="http://www.w3.org/2000/svg">
<g clip-path="url(#clip0_448_58)">
<path d="M0.586 17C8.54663 17 15 23.4534 15 31.414C15 31.6104 14.9959 31.8056 14.9881 32H0V17.012C0.194375 17.0042 0.389625 17 0.586 17ZM31.414 17C31.6104 17 31.8056 17.0042 32 17.012V32H17.0119C17.004 31.8047 17.0001 31.6094 17 31.414C17 23.4534 23.4534 17 31.414 17ZM14.9881 0C14.9959 0.194375 15 0.389625 15 0.586C15 8.54663 8.54663 15 0.585875 15C0.389625 15 0.194375 14.9959 0 14.9881V0H14.9881ZM32 14.9881C31.8056 14.9959 31.6104 15 31.414 15C23.4534 15 17 8.54663 17 0.585875C17 0.389625 17.0041 0.194375 17.0119 0H32V14.9881Z" fill="black"/>
</g>
<defs>
<clipPath id="clip0_448_58">
<rect width="32" height="32" fill="white"/>
</clipPath>
</defs>
</svg>
